<?xml version="1.0" encoding="UTF-8" standalone="no"?>
<!DOCTYPE svg PUBLIC "-//W3C//DTD SVG 1.1//EN" "http://www.w3.org/Graphics/SVG/1.1/DTD/svg11.dtd">
<svg xmlns="http://www.w3.org/2000/svg" version="1.1" viewBox="0 0 3442 609">
<path fill="#current" d="
  M 440.44 609.00
  L 352.94 609.00
  L 208.49 416.49
  A 0.52 0.51 -48.0 0 0 207.63 416.54
  Q 163.93 489.93 120.07 563.35
  Q 111.48 577.72 109.54 580.36
  Q 100.62 592.47 87.44 600.19
  Q 74.62 607.69 59.44 609.00
  L 17.69 609.00
  Q 17.30 608.32 17.75 607.83
  Q 18.22 607.31 18.27 607.21
  Q 100.30 469.39 182.57 331.13
  A 1.81 1.79 15.2 0 1 184.12 330.25
  L 271.03 330.25
  A 1.05 1.03 -18.3 0 1 271.86 330.66
  L 416.47 524.13
  A 1.00 1.00 38.9 0 0 418.18 523.95
  Q 422.89 513.81 428.13 503.96
  Q 431.63 497.39 437.71 486.40
  Q 477.52 414.48 534.90 355.40
  Q 593.95 294.61 668.73 254.71
  Q 711.10 232.09 755.30 213.29
  Q 845.96 174.72 940.34 146.40
  Q 990.05 131.47 1034.31 119.56
  Q 1045.68 116.50 1058.99 113.44
  Q 1069.91 110.93 1078.42 108.71
  Q 1213.86 73.37 1352.49 53.66
  Q 1436.45 41.72 1521.00 35.00
  Q 1589.21 29.57 1624.00 28.00
  Q 1656.84 26.52 1677.25 26.25
  Q 1710.88 25.81 1722.00 25.65
  Q 1775.25 24.88 1828.50 25.90
  Q 2097.03 31.06 2361.69 76.53
  Q 2447.77 91.32 2532.69 111.74
  Q 2545.81 114.89 2558.97 117.88
  Q 2606.94 128.78 2654.25 142.23
  Q 2692.71 153.17 2730.95 164.82
  Q 2740.08 167.61 2750.04 170.77
  Q 2931.24 228.31 3109.28 295.03
  Q 3111.12 295.72 3109.25 295.11
  Q 2966.76 249.08 2822.02 210.69
  Q 2668.68 170.02 2513.01 139.44
  Q 2407.09 118.64 2300.27 103.11
  Q 2129.16 78.23 1956.50 68.72
  Q 1802.56 60.25 1648.50 66.04
  Q 1512.08 71.16 1376.76 89.04
  Q 1250.35 105.74 1126.26 135.04
  Q 1040.65 155.26 964.00 180.00
  Q 908.16 198.02 846.96 223.15
  Q 772.66 253.65 702.00 294.75
  Q 665.80 315.81 633.37 340.34
  Q 625.06 346.63 617.84 352.95
  Q 591.36 376.13 571.56 400.56
  Q 543.40 435.31 518.44 474.69
  Q 497.01 508.49 479.44 540.69
  Q 465.52 566.20 440.44 609.00
  Z"
/>
<path fill="#current" d="
  M 851.94 609.00
  L 551.19 609.00
  Q 542.23 608.15 537.31 605.69
  Q 516.54 595.28 517.50 572.25
  Q 517.92 562.19 522.31 552.62
  Q 523.21 550.67 532.25 535.35
  Q 558.32 491.19 566.06 478.81
  Q 571.01 470.89 580.85 462.83
  Q 596.95 449.64 617.01 447.75
  Q 619.66 447.50 637.01 447.50
  Q 648.11 447.50 659.40 447.50
  Q 660.45 447.50 659.91 448.40
  Q 638.19 484.65 616.83 520.90
  Q 614.37 525.07 614.37 527.53
  Q 614.38 531.33 618.18 532.51
  Q 619.76 533.00 623.86 533.00
  Q 744.63 533.00 865.40 533.00
  Q 873.06 533.00 876.93 531.61
  Q 884.28 528.97 888.19 522.44
  Q 922.49 465.09 957.04 407.09
  Q 957.51 406.31 956.60 406.31
  L 801.24 406.25
  Q 800.30 406.25 800.78 405.44
  L 845.37 331.06
  A 1.65 1.65 -74.6 0 1 846.79 330.25
  L 1077.89 330.25
  Q 1078.45 330.25 1078.16 330.73
  Q 1017.15 433.26 956.18 535.48
  Q 947.48 550.07 945.82 552.57
  Q 922.21 588.11 881.94 602.94
  Q 868.55 607.87 851.94 609.00
  Z"
/>
<path fill="#current" d="
  M 1328.69 609.00
  L 965.19 609.00
  Q 964.88 608.22 965.38 607.60
  Q 965.97 606.88 966.01 606.81
  Q 977.11 588.31 988.44 569.94
  Q 995.57 558.36 1002.42 551.91
  Q 1020.10 535.24 1043.50 533.21
  Q 1045.93 533.00 1063.51 533.00
  Q 1200.34 533.00 1337.17 533.00
  Q 1344.06 533.00 1348.18 531.72
  Q 1360.40 527.95 1367.76 516.78
  Q 1370.81 512.17 1373.64 507.68
  Q 1374.06 507.00 1373.26 507.00
  L 1026.81 506.94
  Q 1025.94 506.94 1026.39 506.19
  Q 1058.07 452.99 1089.69 400.44
  Q 1098.07 386.51 1102.34 380.80
  Q 1127.45 347.32 1166.31 334.81
  Q 1177.90 331.08 1191.00 330.37
  Q 1193.12 330.25 1211.00 330.25
  Q 1382.27 330.25 1554.02 330.25
  Q 1555.19 330.25 1554.60 331.26
  Q 1546.46 345.05 1538.18 358.96
  Q 1529.09 374.25 1527.81 376.06
  Q 1517.37 390.77 1501.00 399.25
  Q 1487.54 406.22 1472.00 406.22
  Q 1327.90 406.25 1183.80 406.25
  Q 1176.19 406.25 1171.83 407.56
  Q 1159.24 411.34 1152.04 422.83
  Q 1150.24 425.69 1149.71 426.49
  Q 1148.55 428.23 1147.36 430.13
  Q 1146.70 431.19 1147.95 431.19
  L 1493.88 431.06
  Q 1494.85 431.06 1494.36 431.90
  Q 1463.30 484.27 1432.47 536.02
  Q 1432.43 536.09 1427.79 544.17
  Q 1407.57 579.37 1371.69 597.44
  Q 1352.05 607.33 1328.69 609.00
  Z"
/>
<path fill="#current" d="
  M 1683.44 609.00
  L 1608.19 609.00
  Q 1607.58 608.43 1608.11 607.84
  Q 1608.68 607.20 1608.76 607.06
  Q 1668.44 506.98 1728.13 407.03
  Q 1728.60 406.25 1727.69 406.25
  L 1555.86 406.25
  Q 1554.45 406.25 1555.17 405.05
  Q 1565.11 388.40 1574.95 371.90
  Q 1581.94 360.17 1586.08 355.33
  Q 1597.82 341.59 1614.81 334.56
  Q 1622.30 331.46 1630.49 330.58
  Q 1633.58 330.25 1646.52 330.25
  Q 1834.65 330.25 2023.24 330.25
  Q 2024.10 330.25 2023.66 330.99
  Q 2012.90 348.82 2002.19 366.45
  Q 1995.27 377.85 1990.84 382.87
  Q 1969.49 407.07 1935.46 406.40
  Q 1928.14 406.25 1928.03 406.25
  Q 1866.41 406.25 1805.31 406.25
  A 1.55 1.54 -74.4 0 0 1803.99 407.00
  L 1683.44 609.00
  Z"
/>
<path fill="#current" d="
  M 2266.94 609.00
  L 1899.69 609.00
  Q 1899.40 608.40 1899.82 607.97
  Q 1900.36 607.40 1900.43 607.28
  Q 1933.77 550.77 1967.54 494.51
  Q 1974.25 483.34 1978.53 477.82
  Q 2004.02 445.01 2045.25 434.00
  Q 2049.58 432.84 2056.21 432.19
  Q 2060.62 431.75 2067.30 431.75
  Q 2209.78 431.75 2352.41 431.75
  A 1.69 1.69 -74.8 0 0 2353.87 430.91
  L 2367.88 407.20
  Q 2368.44 406.25 2367.34 406.25
  L 2021.34 406.25
  Q 2020.30 406.25 2020.83 405.36
  Q 2028.44 392.41 2036.30 379.27
  Q 2046.25 362.61 2046.59 362.12
  Q 2062.27 339.18 2090.25 331.50
  Q 2095.37 330.09 2104.25 330.19
  Q 2109.15 330.25 2109.24 330.25
  Q 2299.00 330.25 2488.95 330.25
  Q 2489.85 330.25 2489.39 331.02
  Q 2428.00 434.12 2366.68 536.97
  Q 2357.04 553.15 2356.40 554.13
  Q 2338.44 581.59 2309.06 597.06
  Q 2289.49 607.37 2266.94 609.00
  Z
  M 2021.67 533.06
  Q 2153.72 532.95 2285.75 533.24
  Q 2292.67 533.26 2296.15 527.42
  Q 2301.85 517.86 2307.50 508.41
  Q 2308.05 507.50 2306.99 507.50
  L 2036.47 507.50
  A 1.35 1.31 -74.3 0 0 2035.33 508.16
  L 2021.18 532.20
  Q 2020.67 533.06 2021.67 533.06
  Z"
/>
<path fill="#current" d="
  M 2618.19 609.00
  L 2542.94 609.00
  Q 2542.69 608.22 2543.18 607.65
  Q 2543.78 606.95 2543.82 606.87
  Q 2603.39 506.92 2662.97 407.05
  Q 2663.45 406.25 2662.51 406.25
  L 2490.61 406.25
  Q 2489.36 406.25 2490.00 405.17
  Q 2499.51 389.21 2508.68 373.87
  Q 2508.71 373.83 2512.09 367.93
  Q 2526.42 342.88 2553.25 333.25
  Q 2559.57 330.98 2567.01 330.41
  Q 2569.14 330.25 2580.98 330.25
  Q 2769.50 330.25 2958.25 330.25
  Q 2959.01 330.25 2958.62 330.89
  Q 2948.56 347.49 2938.66 363.93
  Q 2931.34 376.07 2927.66 380.61
  Q 2906.16 407.09 2870.10 406.39
  Q 2862.99 406.25 2862.90 406.25
  Q 2801.35 406.21 2739.81 406.31
  A 0.87 0.86 15.0 0 0 2739.06 406.74
  Q 2679.41 506.96 2619.56 607.06
  Q 2618.60 608.68 2618.19 609.00
  Z"
/>
<path fill="#current" d="
  M 3197.94 609.00
  L 2834.69 609.00
  Q 2834.43 608.27 2834.87 607.73
  Q 2835.37 607.12 2835.41 607.06
  Q 2854.05 575.30 2859.19 567.19
  Q 2875.02 542.19 2902.50 534.75
  Q 2909.84 532.76 2920.75 532.78
  Q 3065.87 533.00 3211.00 533.00
  Q 3216.70 533.00 3223.40 529.37
  Q 3233.78 523.77 3239.42 513.43
  Q 3240.83 510.85 3242.64 507.76
  Q 3243.08 507.00 3242.20 507.00
  L 2895.88 507.00
  Q 2894.95 507.00 2895.43 506.20
  Q 2927.07 453.07 2959.09 399.82
  Q 2966.34 387.77 2969.81 382.95
  Q 2994.89 348.16 3036.00 334.75
  Q 3046.71 331.26 3058.76 330.46
  Q 3061.86 330.25 3078.75 330.25
  Q 3251.02 330.25 3423.96 330.25
  Q 3424.80 330.25 3424.37 330.97
  Q 3415.27 346.00 3406.19 360.96
  Q 3397.14 375.86 3395.62 377.93
  Q 3386.51 390.32 3372.94 397.94
  Q 3361.13 404.57 3347.74 405.94
  Q 3344.77 406.25 3327.74 406.25
  Q 3190.95 406.25 3054.15 406.25
  Q 3044.98 406.25 3040.50 407.66
  Q 3032.36 410.22 3026.23 416.72
  Q 3020.63 422.65 3016.95 429.92
  A 0.92 0.91 13.5 0 0 3017.77 431.25
  Q 3188.63 431.25 3358.75 431.32
  Q 3360.64 431.32 3363.06 430.90
  Q 3364.66 430.62 3363.83 432.02
  Q 3333.35 483.52 3303.05 534.35
  Q 3293.85 549.80 3292.74 551.47
  Q 3280.90 569.32 3263.06 583.31
  Q 3233.97 606.13 3197.94 609.00
  Z"
/>
</svg>
